<mxfile host="65bd71144e">
    <diagram id="CdMLlu-c7RuPvOUVWHMQ" name="Page-1">
        <mxGraphModel dx="2285" dy="993" grid="1" gridSize="10" guides="1" tooltips="1" connect="1" arrows="1" fold="1" page="1" pageScale="1" pageWidth="850" pageHeight="1100" math="0" shadow="0">
            <root>
                <mxCell id="0"/>
                <mxCell id="1" parent="0"/>
                <mxCell id="28" value="VPC" style="shape=mxgraph.ibm.box;prType=vpc;fontStyle=0;verticalAlign=top;align=left;spacingLeft=32;spacingTop=4;fillColor=none;rounded=0;whiteSpace=wrap;html=1;strokeColor=#4376BB;strokeWidth=2;dashed=0;container=1;spacing=-4;collapsible=0;expand=0;recursiveResize=0;" vertex="1" parent="1">
                    <mxGeometry x="30" y="20" width="910" height="600" as="geometry"/>
                </mxCell>
                <mxCell id="6" value="OpenShift - k8s" style="swimlane;fillColor=#f8cecc;strokeColor=#b85450;" parent="28" vertex="1">
                    <mxGeometry x="220" y="30" width="600" height="550" as="geometry"/>
                </mxCell>
                <mxCell id="25" style="edgeStyle=orthogonalEdgeStyle;sketch=1;html=1;entryX=0.5;entryY=0;entryDx=0;entryDy=0;startArrow=classic;startFill=1;" parent="6" source="7" target="10" edge="1">
                    <mxGeometry relative="1" as="geometry"/>
                </mxCell>
                <mxCell id="7" value="Event Streams Kafka Brokers" style="rounded=0;whiteSpace=wrap;html=1;fillColor=#dae8fc;strokeColor=#6c8ebf;shadow=1;sketch=0;" parent="6" vertex="1">
                    <mxGeometry x="100" y="190" width="330" height="63" as="geometry"/>
                </mxCell>
                <mxCell id="17" style="edgeStyle=orthogonalEdgeStyle;sketch=1;html=1;entryX=0.909;entryY=0.952;entryDx=0;entryDy=0;entryPerimeter=0;" parent="6" source="8" target="7" edge="1">
                    <mxGeometry relative="1" as="geometry"/>
                </mxCell>
                <mxCell id="8" value="Debezium CDC" style="rounded=0;whiteSpace=wrap;html=1;fillColor=#ffe6cc;strokeColor=#d79b00;shadow=0;sketch=1;" parent="6" vertex="1">
                    <mxGeometry x="480" y="420" width="90" height="40" as="geometry"/>
                </mxCell>
                <mxCell id="9" value="Indexing for Interactive Queries - Elastic Search - Cassandra" style="rounded=0;whiteSpace=wrap;html=1;fillColor=#ffe6cc;strokeColor=#d79b00;shadow=0;sketch=1;" parent="6" vertex="1">
                    <mxGeometry x="270" y="480" width="120" height="60" as="geometry"/>
                </mxCell>
                <mxCell id="26" style="edgeStyle=orthogonalEdgeStyle;sketch=1;html=1;entryX=0.5;entryY=0;entryDx=0;entryDy=0;" parent="6" source="10" target="9" edge="1">
                    <mxGeometry relative="1" as="geometry"/>
                </mxCell>
                <mxCell id="10" value="Kafka Connect" style="rounded=0;whiteSpace=wrap;html=1;fillColor=#dae8fc;strokeColor=#6c8ebf;shadow=1;sketch=0;" parent="6" vertex="1">
                    <mxGeometry x="270" y="425" width="120" height="20" as="geometry"/>
                </mxCell>
                <mxCell id="13" value="MQ Broker" style="rounded=0;whiteSpace=wrap;html=1;fillColor=#dae8fc;strokeColor=#6c8ebf;shadow=1;sketch=0;" parent="6" vertex="1">
                    <mxGeometry x="440" y="280" width="120" height="40" as="geometry"/>
                </mxCell>
                <mxCell id="22" style="edgeStyle=orthogonalEdgeStyle;sketch=1;html=1;exitX=0.75;exitY=0;exitDx=0;exitDy=0;entryX=0.5;entryY=0;entryDx=0;entryDy=0;startArrow=classic;startFill=1;" parent="6" source="10" target="13" edge="1">
                    <mxGeometry relative="1" as="geometry"/>
                </mxCell>
                <mxCell id="35" style="edgeStyle=orthogonalEdgeStyle;sketch=1;html=1;entryX=0.25;entryY=0;entryDx=0;entryDy=0;startArrow=classic;startFill=1;" edge="1" parent="6" source="18" target="7">
                    <mxGeometry relative="1" as="geometry"/>
                </mxCell>
                <mxCell id="18" value="Availability Orchestrator" style="rounded=0;whiteSpace=wrap;html=1;shadow=0;sketch=1;fillColor=#ffe6cc;strokeColor=#d79b00;" parent="6" vertex="1">
                    <mxGeometry x="130" y="70" width="120" height="60" as="geometry"/>
                </mxCell>
                <mxCell id="37" style="edgeStyle=orthogonalEdgeStyle;sketch=1;html=1;entryX=0;entryY=0.75;entryDx=0;entryDy=0;startArrow=none;startFill=0;" edge="1" parent="6" source="36" target="18">
                    <mxGeometry relative="1" as="geometry"/>
                </mxCell>
                <mxCell id="36" value="Mobile BFF" style="rounded=0;whiteSpace=wrap;html=1;shadow=0;sketch=1;fillColor=#d5e8d4;strokeColor=#82b366;" vertex="1" parent="6">
                    <mxGeometry x="10" y="480" width="120" height="60" as="geometry"/>
                </mxCell>
                <mxCell id="49" value="Promising" style="rounded=0;whiteSpace=wrap;html=1;shadow=0;sketch=1;fillColor=#ffe6cc;strokeColor=#d79b00;" vertex="1" parent="6">
                    <mxGeometry x="280" y="70" width="120" height="60" as="geometry"/>
                </mxCell>
                <mxCell id="65" value="Optimization" style="rounded=0;whiteSpace=wrap;html=1;shadow=0;sketch=1;fillColor=#ffe6cc;strokeColor=#d79b00;" vertex="1" parent="6">
                    <mxGeometry x="430" y="70" width="120" height="60" as="geometry"/>
                </mxCell>
                <mxCell id="4" value="Sterling" style="swimlane;fillColor=#647687;strokeColor=#314354;fontColor=#ffffff;" parent="28" vertex="1">
                    <mxGeometry x="20" y="50" width="190" height="140" as="geometry"/>
                </mxCell>
                <mxCell id="5" value="e-commerce Portal" style="rounded=0;whiteSpace=wrap;html=1;fillColor=#DBDBDB;" parent="4" vertex="1">
                    <mxGeometry x="40" y="40" width="120" height="30" as="geometry"/>
                </mxCell>
                <mxCell id="38" style="edgeStyle=orthogonalEdgeStyle;sketch=1;html=1;entryX=0.5;entryY=0;entryDx=0;entryDy=0;startArrow=none;startFill=0;" edge="1" parent="28" source="5" target="18">
                    <mxGeometry relative="1" as="geometry"/>
                </mxCell>
                <mxCell id="11" value="On Premise" style="swimlane;shadow=0;sketch=1;fillColor=#B3B3B3;" parent="1" vertex="1">
                    <mxGeometry x="970" y="20" width="240" height="597.5" as="geometry"/>
                </mxCell>
                <mxCell id="12" value="OMS" style="rounded=0;whiteSpace=wrap;html=1;fillColor=#d5e8d4;strokeColor=#82b366;shadow=1;sketch=0;" parent="11" vertex="1">
                    <mxGeometry x="40" y="70" width="160" height="30" as="geometry"/>
                </mxCell>
                <mxCell id="2" value="Inventory - Tx" style="swimlane;fillColor=#d5e8d4;strokeColor=#82b366;" parent="11" vertex="1">
                    <mxGeometry x="20" y="317.5" width="200" height="200" as="geometry"/>
                </mxCell>
                <mxCell id="3" value="Hana - Customer Activity Rep." style="rounded=0;whiteSpace=wrap;html=1;fillColor=#d5e8d4;strokeColor=#82b366;" parent="2" vertex="1">
                    <mxGeometry x="40" y="40" width="120" height="60" as="geometry"/>
                </mxCell>
                <mxCell id="33" value="" style="shape=cylinder3;whiteSpace=wrap;html=1;boundedLbl=1;backgroundOutline=1;size=6;fillColor=#d5e8d4;strokeColor=#82b366;" vertex="1" parent="2">
                    <mxGeometry x="70" y="110" width="60" height="80" as="geometry"/>
                </mxCell>
                <mxCell id="46" value="Other Systems / Warehouse / Store / Drop Ship&amp;nbsp;" style="rounded=0;whiteSpace=wrap;html=1;fillColor=#d5e8d4;strokeColor=#82b366;shadow=1;sketch=0;" vertex="1" parent="11">
                    <mxGeometry x="40" y="197.5" width="160" height="30" as="geometry"/>
                </mxCell>
                <mxCell id="20" style="edgeStyle=orthogonalEdgeStyle;sketch=1;html=1;entryX=1;entryY=0.5;entryDx=0;entryDy=0;exitX=0.5;exitY=0;exitDx=0;exitDy=0;startArrow=classic;startFill=1;" parent="1" source="12" target="13" edge="1">
                    <mxGeometry relative="1" as="geometry"/>
                </mxCell>
                <mxCell id="66" style="edgeStyle=orthogonalEdgeStyle;sketch=1;html=1;entryX=0;entryY=0.5;entryDx=0;entryDy=0;startArrow=none;startFill=0;" edge="1" parent="1" source="30" target="5">
                    <mxGeometry relative="1" as="geometry"/>
                </mxCell>
                <mxCell id="30" value="Web User" style="shape=umlActor;verticalLabelPosition=bottom;verticalAlign=top;html=1;outlineConnect=0;fillColor=#DBDBDB;" vertex="1" parent="1">
                    <mxGeometry x="-80" y="80" width="30" height="60" as="geometry"/>
                </mxCell>
                <mxCell id="44" style="edgeStyle=orthogonalEdgeStyle;sketch=1;html=1;startArrow=none;startFill=0;" edge="1" parent="1" source="31" target="36">
                    <mxGeometry relative="1" as="geometry"/>
                </mxCell>
                <mxCell id="31" value="Mobile User" style="shape=umlActor;verticalLabelPosition=bottom;verticalAlign=top;html=1;outlineConnect=0;fillColor=#DBDBDB;" vertex="1" parent="1">
                    <mxGeometry x="-90" y="530" width="30" height="60" as="geometry"/>
                </mxCell>
                <mxCell id="34" style="edgeStyle=orthogonalEdgeStyle;html=1;startArrow=none;startFill=0;sketch=1;" edge="1" parent="1" source="33" target="8">
                    <mxGeometry relative="1" as="geometry"/>
                </mxCell>
                <mxCell id="47" style="edgeStyle=orthogonalEdgeStyle;sketch=1;html=1;startArrow=none;startFill=0;" edge="1" parent="1" source="46" target="7">
                    <mxGeometry relative="1" as="geometry"/>
                </mxCell>
            </root>
        </mxGraphModel>
    </diagram>
</mxfile>